<svg width="616" height="384" viewBox="0 0 616 384" fill="none" xmlns="http://www.w3.org/2000/svg">
<path d="M374.062 164.496C375.896 174.188 377.205 183.88 377.205 196.452C377.205 306.205 303.6 384 192.801 384C86.7168 384 0.800781 298.085 0.800781 192C0.800781 85.915 86.7168 0 192.801 0C244.665 0 287.884 18.859 321.412 50.292L269.286 100.322C255.141 86.701 230.258 70.723 192.801 70.723C127.317 70.723 73.8808 124.944 73.8808 192C73.8808 259.056 127.317 313.277 192.801 313.277C268.762 313.277 297.314 258.532 301.766 230.504H192.801V164.495H374.062V164.496ZM559.468 170.933V115.2H503.467V170.933H447.734V226.934H503.467V282.667H559.468V226.934H615.201V170.933H559.468Z" fill="#FFC727"/>
</svg>
