<svg width="450" height="449" viewBox="0 0 450 449" fill="none" xmlns="http://www.w3.org/2000/svg">
<path d="M225.101 110C161.501 110 110.201 161.3 110.201 224.9C110.201 288.5 161.501 339.8 225.101 339.8C288.701 339.8 340.001 288.5 340.001 224.9C340.001 161.3 288.701 110 225.101 110ZM225.101 299.6C184.001 299.6 150.401 266.1 150.401 224.9C150.401 183.7 183.901 150.2 225.101 150.2C266.301 150.2 299.801 183.7 299.801 224.9C299.801 266.1 266.201 299.6 225.101 299.6ZM371.501 105.3C371.501 120.2 359.501 132.1 344.701 132.1C329.801 132.1 317.901 120.1 317.901 105.3C317.901 90.5002 329.901 78.5002 344.701 78.5002C359.501 78.5002 371.501 90.5002 371.501 105.3ZM447.601 132.5C445.901 96.6002 437.701 64.8002 411.401 38.6002C385.201 12.4002 353.401 4.2002 317.501 2.4002C280.501 0.300195 169.601 0.300195 132.601 2.4002C96.8008 4.1002 65.0008 12.3002 38.7008 38.5002C12.4008 64.7002 4.30078 96.5002 2.50078 132.4C0.400781 169.4 0.400781 280.3 2.50078 317.3C4.20078 353.2 12.4008 385 38.7008 411.2C65.0008 437.4 96.7008 445.6 132.601 447.4C169.601 449.5 280.501 449.5 317.501 447.4C353.401 445.7 385.201 437.5 411.401 411.2C437.601 385 445.801 353.2 447.601 317.3C449.701 280.3 449.701 169.5 447.601 132.5ZM399.801 357C392.001 376.6 376.901 391.7 357.201 399.6C327.701 411.3 257.701 408.6 225.101 408.6C192.501 408.6 122.401 411.2 93.0008 399.6C73.4008 391.8 58.3008 376.7 50.4008 357C38.7008 327.5 41.4008 257.5 41.4008 224.9C41.4008 192.3 38.8008 122.2 50.4008 92.8002C58.2008 73.2002 73.3008 58.1002 93.0008 50.2002C122.501 38.5002 192.501 41.2002 225.101 41.2002C257.701 41.2002 327.801 38.6002 357.201 50.2002C376.801 58.0002 391.901 73.1002 399.801 92.8002C411.501 122.3 408.801 192.3 408.801 224.9C408.801 257.5 411.501 327.6 399.801 357Z" fill="#FFC727"/>
</svg>
