<svg width="615" height="493" viewBox="0 0 615 493" fill="none" xmlns="http://www.w3.org/2000/svg">
<path d="M307.175 132.175C243.575 132.175 192.275 183.475 192.275 247.075C192.275 310.675 243.575 361.975 307.175 361.975C370.775 361.975 422.075 310.675 422.075 247.075C422.075 183.475 370.775 132.175 307.175 132.175ZM307.175 321.775C266.075 321.775 232.475 288.275 232.475 247.075C232.475 205.875 265.975 172.375 307.175 172.375C348.375 172.375 381.875 205.875 381.875 247.075C381.875 288.275 348.275 321.775 307.175 321.775ZM453.575 127.475C453.575 142.375 441.575 154.275 426.775 154.275C411.875 154.275 399.975 142.275 399.975 127.475C399.975 112.675 411.975 100.675 426.775 100.675C441.575 100.675 453.575 112.675 453.575 127.475ZM529.675 154.675C527.975 118.775 519.775 86.975 493.475 60.775C467.275 34.575 435.475 26.375 399.575 24.575C362.575 22.475 251.675 22.475 214.675 24.575C178.875 26.275 147.075 34.475 120.775 60.675C94.475 86.875 86.375 118.675 84.575 154.575C82.475 191.575 82.475 302.475 84.575 339.475C86.275 375.375 94.475 407.175 120.775 433.375C147.075 459.575 178.775 467.775 214.675 469.575C251.675 471.675 362.575 471.675 399.575 469.575C435.475 467.875 467.275 459.675 493.475 433.375C519.675 407.175 527.875 375.375 529.675 339.475C531.775 302.475 531.775 191.675 529.675 154.675ZM481.875 379.175C474.075 398.775 458.975 413.875 439.275 421.775C409.775 433.475 339.775 430.775 307.175 430.775C274.575 430.775 204.475 433.375 175.075 421.775C155.475 413.975 140.375 398.875 132.475 379.175C120.775 349.675 123.475 279.675 123.475 247.075C123.475 214.475 120.875 144.375 132.475 114.975C140.275 95.375 155.375 80.275 175.075 72.375C204.575 60.675 274.575 63.375 307.175 63.375C339.775 63.375 409.875 60.775 439.275 72.375C458.875 80.175 473.975 95.275 481.875 114.975C493.575 144.475 490.875 214.475 490.875 247.075C490.875 279.675 493.575 349.775 481.875 379.175Z" fill="orange"/>
</svg>
