<svg width="615" height="493" viewBox="0 0 615 493" fill="none" xmlns="http://www.w3.org/2000/svg">
<path d="M510.37 142.634C510.695 147.182 510.695 151.731 510.695 156.279C510.695 294.999 405.112 454.837 212.137 454.837C152.685 454.837 97.457 437.618 51 407.731C59.447 408.705 67.568 409.03 76.34 409.03C125.395 409.03 170.553 392.462 206.614 364.198C160.482 363.223 121.822 333.01 108.502 291.426C115 292.4 121.497 293.05 128.32 293.05C137.741 293.05 147.163 291.75 155.934 289.477C107.853 279.73 71.791 237.497 71.791 186.492V185.193C85.76 192.99 102.005 197.863 119.222 198.512C90.958 179.669 72.441 147.507 72.441 111.121C72.441 91.629 77.638 73.761 86.735 58.167C138.39 121.842 216.035 163.425 303.1 167.974C301.476 160.177 300.501 152.056 300.501 143.934C300.501 86.106 347.283 39 405.435 39C435.648 39 462.937 51.67 482.105 72.137C505.82 67.589 528.561 58.817 548.704 46.797C540.906 71.163 524.338 91.63 502.572 104.624C523.689 102.351 544.156 96.502 562.998 88.381C548.706 109.172 530.837 127.689 510.37 142.634Z" fill="orange"/>
</svg>
