<svg width="640" height="512" viewBox="0 0 640 512" fill="blue" xmlns="http://www.w3.org/2000/svg">
<path d="M569.12 19.0938C567.931 13.5625 562.462 8.09375 556.913 6.90625C524.716 0 499.507 0 474.407 0C371.175 0 309.269 55.2031 263.052 128H158.838C142.49 128.016 123.281 139.875 115.951 154.484L66.5156 253.297C64.9879 256.667 64.1333 260.302 64 264C64.0023 270.365 66.5324 276.47 71.034 280.97C75.5357 285.471 81.6403 287.999 88.0058 288H191.816L169.342 310.469C157.976 321.83 156.346 342.727 169.342 355.719L220.246 406.625C231.402 417.812 252.402 419.781 265.523 406.625L287.998 384.156V488C288 494.365 290.53 500.47 295.032 504.97C299.533 509.471 305.638 511.999 312.003 512C315.702 511.863 319.338 511.009 322.71 509.484L421.439 460.094C436.068 452.797 447.947 433.594 447.947 417.234V312.797C520.544 266.484 575.981 204.391 575.981 101.703C576.075 76.5 576.075 51.2969 569.12 19.0938ZM448.04 168C440.13 167.998 432.397 165.651 425.82 161.254C419.243 156.858 414.118 150.61 411.092 143.301C408.066 135.991 407.275 127.949 408.82 120.19C410.364 112.432 414.175 105.305 419.769 99.7123C425.364 94.1192 432.491 90.3105 440.25 88.7679C448.009 87.2253 456.051 88.018 463.36 91.0457C470.668 94.0735 476.915 99.2004 481.309 105.778C485.704 112.356 488.05 120.089 488.05 128C488.044 138.608 483.826 148.78 476.324 156.281C468.822 163.781 458.649 167.996 448.04 168Z" fill="blue"/>
</svg>
